<?xml version="1.0" standalone="no"?><!-- Generator: Gravit.io --><svg xmlns="http://www.w3.org/2000/svg" xmlns:xlink="http://www.w3.org/1999/xlink" style="isolation:isolate" viewBox="0 0 1024 1024" width="1024" height="1024"><defs><clipPath id="_clipPath_ndAlAz1ChGzhs2KSIHFs2BWL2MJyvQLW"><rect width="1024" height="1024"/></clipPath></defs><g clip-path="url(#_clipPath_ndAlAz1ChGzhs2KSIHFs2BWL2MJyvQLW)"><g id="Back"><rect x="0" y="0" width="512" height="512" transform="matrix(1,0,0,1,0,0)" fill="rgb(196,238,255)"/><rect x="512" y="0" width="512" height="512" transform="matrix(1,0,0,1,0,0)" fill="rgb(255,196,196)"/><rect x="0" y="512" width="512" height="512" transform="matrix(1,0,0,1,0,0)" fill="rgb(245,196,255)"/><rect x="512" y="512" width="512" height="512" transform="matrix(1,0,0,1,0,0)" fill="rgb(196,255,202)"/></g><path d=" M 484.731 484.731 L 414.287 484.731 L 414.287 512 L 484.731 512 L 512 512 L 512 484.731 L 512 414.287 L 484.731 414.287 L 484.731 484.731 Z  M 27.269 27.269 L 97.713 27.269 L 97.713 0 L 27.269 0 L 0 0 L 0 27.269 L 0 97.713 L 27.269 97.713 L 27.269 27.269 Z  M 27.269 484.731 L 27.269 414.287 L 0 414.287 L 0 484.731 L 0 512 L 27.269 512 L 97.713 512 L 97.713 484.731 L 27.269 484.731 Z  M 484.731 27.269 L 484.731 97.713 L 512 97.713 L 512 27.269 L 512 0 L 484.731 0 L 414.287 0 L 414.287 27.269 L 484.731 27.269 Z " fill="rgb(120,197,223)"/><path d=" M 996.731 484.731 L 926.287 484.731 L 926.287 512 L 996.731 512 L 1024 512 L 1024 484.731 L 1024 414.287 L 996.731 414.287 L 996.731 484.731 Z  M 539.269 27.269 L 609.713 27.269 L 609.713 0 L 539.269 0 L 512 0 L 512 27.269 L 512 97.713 L 539.269 97.713 L 539.269 27.269 Z  M 539.269 484.731 L 539.269 414.287 L 512 414.287 L 512 484.731 L 512 512 L 539.269 512 L 609.713 512 L 609.713 484.731 L 539.269 484.731 Z  M 996.731 27.269 L 996.731 97.713 L 1024 97.713 L 1024 27.269 L 1024 0 L 996.731 0 L 926.287 0 L 926.287 27.269 L 996.731 27.269 Z " fill="rgb(249,139,139)"/><path d=" M 484.731 996.731 L 414.287 996.731 L 414.287 1024 L 484.731 1024 L 512 1024 L 512 996.731 L 512 926.287 L 484.731 926.287 L 484.731 996.731 Z  M 27.269 539.269 L 97.713 539.269 L 97.713 512 L 27.269 512 L 0 512 L 0 539.269 L 0 609.713 L 27.269 609.713 L 27.269 539.269 Z  M 27.269 996.731 L 27.269 926.287 L 0 926.287 L 0 996.731 L 0 1024 L 27.269 1024 L 97.713 1024 L 97.713 996.731 L 27.269 996.731 Z  M 484.731 539.269 L 484.731 609.713 L 512 609.713 L 512 539.269 L 512 512 L 484.731 512 L 414.287 512 L 414.287 539.269 L 484.731 539.269 Z " fill="rgb(235,135,255)"/><path d=" M 996.731 996.731 L 926.287 996.731 L 926.287 1024 L 996.731 1024 L 1024 1024 L 1024 996.731 L 1024 926.287 L 996.731 926.287 L 996.731 996.731 Z  M 539.269 539.269 L 609.713 539.269 L 609.713 512 L 539.269 512 L 512 512 L 512 539.269 L 512 609.713 L 539.269 609.713 L 539.269 539.269 Z  M 539.269 996.731 L 539.269 926.287 L 512 926.287 L 512 996.731 L 512 1024 L 539.269 1024 L 609.713 1024 L 609.713 996.731 L 539.269 996.731 Z  M 996.731 539.269 L 996.731 609.713 L 1024 609.713 L 1024 539.269 L 1024 512 L 996.731 512 L 926.287 512 L 926.287 539.269 L 996.731 539.269 Z " fill="rgb(137,232,147)"/><g transform="matrix(1,0,0,1,27.054,166.311)"><text transform="matrix(1,0,0,1,94.244,145.376)" style="font-family:&quot;Monda&quot;;font-weight:400;font-size:106px;font-style:normal;fill:#78c5df;stroke:#4C99B3;stroke-width:6;">Static</text></g><g transform="matrix(1,0,0,1,539.054,71.581)"><text transform="matrix(1,0,0,1,94.244,179.671)" style="font-family:&quot;Monda&quot;;font-weight:400;font-size:106px;font-style:normal;fill:#f98b8b;stroke:#DB5959;stroke-width:6;">Static</text><text transform="matrix(1,0,0,1,77.397,309.169)" style="font-family:&quot;Monda&quot;;font-weight:400;font-size:106px;font-style:normal;fill:#f98b8b;stroke:#DB5959;stroke-width:6;">Follow</text></g><g transform="matrix(1,0,0,1,27.054,574.491)"><text transform="matrix(1,0,0,1,101.594,179.671)" style="font-family:&quot;Monda&quot;;font-weight:400;font-size:106px;font-style:normal;fill:#eb87ff;stroke:#C253D9;stroke-width:6;">Plane</text><text transform="matrix(1,0,0,1,77.397,309.169)" style="font-family:&quot;Monda&quot;;font-weight:400;font-size:106px;font-style:normal;fill:#eb87ff;stroke:#C253D9;stroke-width:6;">Follow</text></g><g transform="matrix(1,0,0,1,539.054,528.901)"><text transform="matrix(1,0,0,1,135.495,166.193)" style="font-family:&quot;Monda&quot;;font-weight:400;font-size:106px;font-style:normal;fill:#89e893;stroke:#60CE6B;stroke-width:6;">3rd-</text><text transform="matrix(1,0,0,1,73.334,295.691)" style="font-family:&quot;Monda&quot;;font-weight:400;font-size:106px;font-style:normal;fill:#89e893;stroke:#60CE6B;stroke-width:6;">Person</text><text transform="matrix(1,0,0,1,77.397,425.189)" style="font-family:&quot;Monda&quot;;font-weight:400;font-size:106px;font-style:normal;fill:#89e893;stroke:#60CE6B;stroke-width:6;">Follow</text></g></g></svg>